<?xml version="1.0" encoding="UTF-8" standalone="no"?>
<svg
   xmlns:dc="http://purl.org/dc/elements/1.1/"
   xmlns:cc="http://creativecommons.org/ns#"
   xmlns:rdf="http://www.w3.org/1999/02/22-rdf-syntax-ns#"
   xmlns:svg="http://www.w3.org/2000/svg"
   xmlns="http://www.w3.org/2000/svg"
   xmlns:xlink="http://www.w3.org/1999/xlink"
   xmlns:sodipodi="http://sodipodi.sourceforge.net/DTD/sodipodi-0.dtd"
   xmlns:inkscape="http://www.inkscape.org/namespaces/inkscape"
   id="svg17"
   version="1.1"
   fill="none"
   viewBox="0 0 87 87"
   height="200"
   width="200"
   sodipodi:docname="valournet.svg"
   inkscape:version="1.0 (4035a4fb49, 2020-05-01)">
  <metadata
     id="metadata24">
    <rdf:RDF>
      <cc:Work
         rdf:about="">
        <dc:format>image/svg+xml</dc:format>
        <dc:type
           rdf:resource="http://purl.org/dc/dcmitype/StillImage" />
      </cc:Work>
    </rdf:RDF>
  </metadata>
  <sodipodi:namedview
     inkscape:document-rotation="0"
     pagecolor="#ffffff"
     bordercolor="#666666"
     borderopacity="1"
     objecttolerance="10"
     gridtolerance="10"
     guidetolerance="10"
     inkscape:pageopacity="0"
     inkscape:pageshadow="2"
     inkscape:window-width="1920"
     inkscape:window-height="1017"
     id="namedview22"
     showgrid="false"
     inkscape:zoom="256"
     inkscape:cx="203.4116"
     inkscape:cy="99.60381"
     inkscape:window-x="1912"
     inkscape:window-y="-8"
     inkscape:window-maximized="1"
     inkscape:current-layer="svg17" />
  <path
     d="m 43.497833,86.439063 c -11.472858,0 -22.249767,-4.464834 -30.374054,-12.56717 C 5.0214095,65.747605 0.55656578,54.970695 0.55656578,43.497834 0.55656578,32.024975 5.0214095,21.248066 13.123779,13.123779 21.226118,4.9995227 32.024975,0.5565652 43.497833,0.5565652 c 11.472861,0 22.249771,4.4648437 30.374059,12.5672138 8.102336,8.10677 12.56717,18.901196 12.56717,30.374055 0,11.472861 -4.464834,22.249771 -12.56717,30.374059 -8.124288,8.102336 -18.901197,12.56717 -30.374059,12.56717 z"
     fill="#040d14"
     id="path2"
     style="stroke-width:1.03042" />
  <path
     d="M38.5 33.9717L34.0395 25.0763C33.1007 23.1774 31.1551 21.9795 29.0396 21.9795H27.5612C23.4067 21.9795 20.7091 26.3422 22.5613 30.0763L38.4957 61.9451C40.5603 66.0742 46.4268 66.0742 48.4914 61.9451L50.4837 57.9605L38.5 33.9717Z"
     fill="url(#paint0_linear)"
     id="path8" />
  <defs
     id="defs15">
    <linearGradient
       id="linearGradient866">
      <stop
         style="stop-color:#7014e8;stop-opacity:1"
         offset="0"
         id="stop862" />
      <stop
         id="stop885"
         offset="1"
         style="stop-color:#4734de;stop-opacity:0.49803922;" />
      <stop
         style="stop-color:#4734de;stop-opacity:0"
         offset="1"
         id="stop864" />
    </linearGradient>
    <linearGradient
       id="paint0_linear"
       x1="21.9723"
       y1="43.5088"
       x2="50.4903"
       y2="43.5088"
       gradientUnits="userSpaceOnUse">
      <stop
         stop-color="white"
         id="stop10" />
      <stop
         offset="1"
         stop-color="#626262"
         id="stop12" />
    </linearGradient>
    <filter
       height="1.0003721"
       y="-0.00018604321"
       width="1.0005163"
       x="-0.00025817404"
       id="filter1003"
       style="color-interpolation-filters:sRGB">
      <feGaussianBlur
         id="feGaussianBlur1005"
         stdDeviation="0.0027802768" />
    </filter>
    <filter
       height="1.0001536"
       y="-7.6804427e-05"
       width="1.0001536"
       x="-7.6795576e-05"
       id="filter1007"
       style="color-interpolation-filters:sRGB">
      <feGaussianBlur
         id="feGaussianBlur1009"
         stdDeviation="0.0027802768" />
    </filter>
    <linearGradient
       xlink:href="#linearGradient866"
       id="linearGradient878"
       gradientUnits="userSpaceOnUse"
       x1="43.5"
       y1="0"
       x2="43.375"
       y2="87.048302" />
    <linearGradient
       xlink:href="#linearGradient866"
       id="linearGradient893"
       x1="39.47134"
       y1="57.402397"
       x2="65.080292"
       y2="22.277397"
       gradientUnits="userSpaceOnUse"
       gradientTransform="translate(0.00667026,-0.00604888)" />
    <linearGradient
       y2="87.048302"
       x2="43.375"
       y1="0"
       x1="43.5"
       gradientUnits="userSpaceOnUse"
       id="linearGradient878-6"
       xlink:href="#linearGradient866"
       gradientTransform="translate(0)" />
  </defs>
  <path
     style="fill:#040d14;fill-opacity:1;stroke-width:0.0730621"
     id="path25-4"
     d="M 40.673407,86.879614 C 30.152251,86.122894 20.64834,81.881954 13.174448,74.608724 5.958511,67.586518 1.464428,58.4096 0.311656,48.342896 -0.005364,45.574484 -0.024726,41.755805 0.264576,39.057635 1.492032,27.609799 6.945368,17.401131 15.759231,10.05158 26.03772,1.480729 39.782435,-1.831049 52.984373,1.082211 c 11.769655,2.5972 22.165458,10.253479 28.197858,20.767098 3.53572,6.162265 5.45767,12.869365 5.73377,20.009324 0.55242,14.286049 -5.91637,27.82484 -17.41959,36.458141 -2.181624,1.63733 -4.352138,2.95829 -6.940904,4.2242 -4.814702,2.35437 -9.538357,3.68723 -15.014261,4.23653 -1.347676,0.13519 -5.541064,0.19753 -6.867839,0.10211 z m 5.18741,-3.57945 c 8.891544,-0.55556 17.051348,-3.87986 23.743194,-9.67294 6.20217,-5.369176 10.60648,-12.530603 12.56188,-20.425698 0.84662,-3.418268 1.17604,-6.130191 1.17549,-9.677068 0,-2.190469 -0.0752,-3.395484 -0.33012,-5.316417 -1.32175,-9.95857 -6.33044,-18.980933 -14.13588,-25.463469 C 64.923676,9.462618 60.1718,6.90032 55.249298,5.397139 51.800097,4.34386 48.675666,3.814683 45.066755,3.672548 38.24339,3.403815 31.747547,4.809292 25.622614,7.879593 21.48424,9.954075 18.210159,12.359764 14.875176,15.776468 10.01056,20.760288 6.526866,26.997085 4.84421,33.734733 c -0.877983,3.515601 -1.165374,5.889149 -1.171633,9.676471 -0.0045,2.719036 0.04451,3.490511 0.365281,5.751016 0.815566,5.747343 2.895975,11.266829 6.080139,16.131084 3.042762,4.648243 6.956905,8.56288 11.595795,11.59726 7.106474,4.64848 15.723945,6.93591 24.147025,6.4096 z" />
  <path
     style="fill:url(#linearGradient893);fill-opacity:1;stroke:none;stroke-width:0.07308;stroke-miterlimit:4;stroke-dasharray:none;stroke-opacity:1"
     d="m 39.105604,35.18344 c 0,0 0.188808,0.282325 0.490338,0.477164 1.418417,0.916538 2.845759,1.638719 4.457776,1.457403 1.771059,-0.199203 3.192657,-1.077615 4.13955,-2.557847 0.140329,-0.21937 1.314224,-2.478175 2.589557,-5.029116 1.275334,-2.55094 2.428215,-4.802463 2.561957,-5.003383 0.801857,-1.204624 2.138734,-2.068833 3.63787,-2.35166 0.798425,-0.150631 3.231081,-0.09758 3.882537,0.08467 1.053252,0.294652 2.130371,0.990204 2.812991,1.816494 0.439409,0.531891 0.972432,1.573434 1.146618,2.240522 0.176892,0.677452 0.173398,1.991674 -0.0072,2.703298 -0.107637,0.424163 -1.739587,3.755688 -7.233148,14.740719 L 50.4837,57.9605 Z"
     id="path23"
     sodipodi:nodetypes="cssssssssssscc" />
  <path
     d="M 40.673407,86.879614 C 30.152251,86.122895 20.64834,81.881955 13.174448,74.608725 5.9585106,67.586521 1.4644278,58.409603 0.31165642,48.342899 -0.0053636,45.574487 -0.02472596,41.755808 0.26457613,39.057639 1.4920319,27.609802 6.9453684,17.401134 15.759231,10.051583 26.03772,1.4807336 39.782435,-1.8310443 52.984372,1.0822156 64.754027,3.6794151 75.149828,11.335694 81.18223,21.849312 c 3.535723,6.162266 5.457673,12.869365 5.733767,20.009325 0.552423,14.286049 -5.916371,27.824839 -17.41959,36.458143 -2.181621,1.637329 -4.352134,2.958292 -6.9409,4.224195 -4.814703,2.354375 -9.538357,3.687232 -15.014262,4.236535 -1.347676,0.135187 -5.541064,0.197531 -6.867838,0.102104 z m 5.18741,-3.579444 c 8.891543,-0.555564 17.051347,-3.87986 23.743195,-9.672947 6.202169,-5.369172 10.606477,-12.530599 12.561882,-20.425694 0.846614,-3.418268 1.176037,-6.130191 1.175482,-9.677068 0,-2.190469 -0.07517,-3.395483 -0.330117,-5.316416 C 81.689514,28.249475 76.680815,19.227111 68.875379,12.744575 64.923675,9.4626222 60.1718,6.9003245 55.249297,5.3971436 51.800096,4.343864 48.675666,3.8146873 45.066755,3.6725526 38.24339,3.4038187 31.747546,4.8092965 25.622614,7.8795973 21.48424,9.9540788 18.210159,12.359768 14.875176,15.776472 10.01056,20.760291 6.526866,26.997088 4.8442104,33.734736 c -0.8779837,3.515601 -1.1653746,5.889149 -1.1716333,9.676471 -0.00449,2.719036 0.044508,3.490512 0.3652805,5.751016 0.8155668,5.747343 2.8959757,11.266829 6.0801394,16.131084 3.042762,4.648243 6.956905,8.562885 11.595795,11.597264 7.106474,4.648474 15.723945,6.935902 24.147025,6.409599 z"
     id="path25"
     style="fill:url(#linearGradient878);stroke-width:0.0730621;fill-opacity:1;" />
</svg>
