<?xml version="1.0" encoding="UTF-8" standalone="no"?>
<svg
   xmlns:dc="http://purl.org/dc/elements/1.1/"
   xmlns:cc="http://creativecommons.org/ns#"
   xmlns:rdf="http://www.w3.org/1999/02/22-rdf-syntax-ns#"
   xmlns:svg="http://www.w3.org/2000/svg"
   xmlns="http://www.w3.org/2000/svg"
   xmlns:xlink="http://www.w3.org/1999/xlink"
   id="svg17"
   version="1.1"
   fill="none"
   viewBox="0 0 87 87"
   height="87"
   width="87">
  <metadata
     id="metadata21">
    <rdf:RDF>
      <cc:Work
         rdf:about="">
        <dc:format>image/svg+xml</dc:format>
        <dc:type
           rdf:resource="http://purl.org/dc/dcmitype/StillImage" />
        <dc:title></dc:title>
      </cc:Work>
    </rdf:RDF>
  </metadata>
  <path
     d="M43.5 85.1733C32.3659 85.1733 21.9072 80.8403 14.0228 72.9772C6.15967 65.0928 1.82666 54.6341 1.82666 43.5C1.82666 32.3659 6.15967 21.9072 14.0228 14.0228C21.8859 6.13843 32.3659 1.82666 43.5 1.82666C54.6341 1.82666 65.0928 6.15967 72.9772 14.0228C80.8403 21.8902 85.1733 32.3659 85.1733 43.5C85.1733 54.6341 80.8403 65.0928 72.9772 72.9772C65.0928 80.8403 54.6341 85.1733 43.5 85.1733Z"
     fill="#040D14"
     id="path2" />
  <path
     class="r"
     d="M43.5 3.65332C48.878 3.65332 54.0946 4.71533 59.0054 6.78413C63.7547 8.78496 68.0197 11.6566 71.673 15.327C75.3264 18.9803 78.215 23.2453 80.2159 27.9946C82.2847 32.9011 83.3467 38.122 83.3467 43.5C83.3467 48.878 82.2847 54.0946 80.2159 59.0054C78.215 63.7547 75.3434 68.0197 71.673 71.673C68.0197 75.3264 63.7547 78.215 59.0054 80.2159C54.0989 82.2847 48.878 83.3467 43.5 83.3467C38.122 83.3467 32.9054 82.2847 27.9946 80.2159C23.2453 78.215 18.9803 75.3434 15.327 71.673C11.6736 68.0197 8.78496 63.7547 6.78413 59.0054C4.71533 54.0946 3.65332 48.878 3.65332 43.5C3.65332 38.122 4.71533 32.9054 6.78413 27.9946C8.78496 23.2453 11.6566 18.9803 15.327 15.327C18.9803 11.6736 23.2453 8.78496 27.9946 6.78413C32.9054 4.71533 38.122 3.65332 43.5 3.65332ZM43.5 0C19.4688 0 0 19.4688 0 43.5C0 67.5312 19.4688 87 43.5 87C67.5312 87 87 67.5312 87 43.5C87 19.4688 67.5312 0 43.5 0Z"
     fill="currentColor"
     id="path4" />
  <path
     class="r"
     d="M52.9561 25.0763L48.4956 33.9717C46.4311 38.1008 40.5645 38.1008 38.5 33.9717L34.0395 25.0763C33.1007 23.1774 31.1551 21.9795 29.0396 21.9795H27.5612C23.4067 21.9795 20.7091 26.3422 22.5613 30.0763L38.4957 61.9451C40.5603 66.0742 46.4268 66.0742 48.4914 61.9451L64.43 30.0763C66.2822 26.3677 63.5847 21.9795 59.4301 21.9795H57.9518C55.8192 21.9795 53.8949 23.1732 52.9561 25.0763Z"
     fill="currentColor"
     id="path6" />
  <path
     d="M38.5 33.9717L34.0395 25.0763C33.1007 23.1774 31.1551 21.9795 29.0396 21.9795H27.5612C23.4067 21.9795 20.7091 26.3422 22.5613 30.0763L38.4957 61.9451C40.5603 66.0742 46.4268 66.0742 48.4914 61.9451L50.4837 57.9605L38.5 33.9717Z"
     fill="url(#paint0_linear)"
     id="path8" />
  <defs
     id="defs15">
    <linearGradient
       id="linearGradient866">
      <stop
         style="stop-color:#7014e8;stop-opacity:1"
         offset="0"
         id="stop862" />
      <stop
         id="stop885"
         offset="1"
         style="stop-color:#4734de;stop-opacity:0.49803922;" />
      <stop
         style="stop-color:#4734de;stop-opacity:0"
         offset="1"
         id="stop864" />
    </linearGradient>
    <linearGradient
       id="paint0_linear"
       x1="21.9723"
       y1="43.5088"
       x2="50.4903"
       y2="43.5088"
       gradientUnits="userSpaceOnUse">
      <stop
         stop-color="white"
         id="stop10" />
      <stop
         offset="1"
         stop-color="#626262"
         id="stop12" />
    </linearGradient>
    <filter
       height="1.0003721"
       y="-0.00018604321"
       width="1.0005163"
       x="-0.00025817404"
       id="filter1003"
       style="color-interpolation-filters:sRGB">
      <feGaussianBlur
         id="feGaussianBlur1005"
         stdDeviation="0.0027802768" />
    </filter>
    <filter
       height="1.0001536"
       y="-7.6804427e-05"
       width="1.0001536"
       x="-7.6795576e-05"
       id="filter1007"
       style="color-interpolation-filters:sRGB">
      <feGaussianBlur
         id="feGaussianBlur1009"
         stdDeviation="0.0027802768" />
    </filter>
    <linearGradient
       xlink:href="#linearGradient866"
       id="linearGradient878"
       gradientUnits="userSpaceOnUse"
       x1="43.5"
       y1="0"
       x2="43.375"
       y2="87.048302" />
    <linearGradient
       xlink:href="#linearGradient866"
       id="linearGradient893"
       x1="39.47134"
       y1="57.402397"
       x2="65.080292"
       y2="22.277397"
       gradientUnits="userSpaceOnUse" />
  </defs>
  <path
     style="fill:url(#linearGradient893);fill-opacity:1;stroke-width:0.0730621;filter:url(#filter1003)"
     d="m 44.803122,46.598841 c -3.124318,-6.248912 -5.70011,-11.389865 -5.70011,-11.414789 0,-0.02493 0.18473,0.287762 0.48626,0.482601 1.418417,0.916538 2.845759,1.638719 4.457776,1.457403 1.771059,-0.199203 3.192657,-1.077615 4.13955,-2.557847 0.140329,-0.21937 1.314224,-2.478175 2.589557,-5.029116 1.275334,-2.55094 2.428215,-4.802463 2.561957,-5.003383 0.801857,-1.204624 2.138734,-2.068833 3.63787,-2.35166 0.798425,-0.150631 3.231081,-0.09758 3.882537,0.08467 1.053252,0.294652 2.130371,0.990204 2.812991,1.816494 0.439409,0.531891 0.972432,1.573434 1.146618,2.240522 0.176892,0.677452 0.173398,1.991674 -0.0072,2.703298 -0.107637,0.424163 -1.741837,3.754563 -7.233148,14.740719 L 50.4837,57.9605 Z"
     id="path23" />
  <path
     style="fill:url(#linearGradient878);stroke-width:0.0730621;fill-opacity:1;filter:url(#filter1007)"
     d="M 40.673407,86.879614 C 30.152251,86.122895 20.64834,81.881955 13.174448,74.608725 5.9585106,67.586521 1.4644278,58.409603 0.31165642,48.342899 -0.0053636,45.574487 -0.02472596,41.755808 0.26457613,39.057639 1.4920319,27.609802 6.9453684,17.401134 15.759231,10.051583 26.03772,1.4807336 39.782435,-1.8310443 52.984372,1.0822156 64.754027,3.6794151 75.149828,11.335694 81.18223,21.849312 c 3.535723,6.162266 5.457673,12.869365 5.733767,20.009325 0.552423,14.286049 -5.916371,27.824839 -17.41959,36.458143 -2.181621,1.637329 -4.352134,2.958292 -6.9409,4.224195 -4.814703,2.354375 -9.538357,3.687232 -15.014262,4.236535 -1.347676,0.135187 -5.541064,0.197531 -6.867838,0.102104 z m 5.18741,-3.579444 c 8.891543,-0.555564 17.051347,-3.87986 23.743195,-9.672947 6.202169,-5.369172 10.606477,-12.530599 12.561882,-20.425694 0.846614,-3.418268 1.176037,-6.130191 1.175482,-9.677068 0,-2.190469 -0.07517,-3.395483 -0.330117,-5.316416 C 81.689514,28.249475 76.680815,19.227111 68.875379,12.744575 64.923675,9.4626222 60.1718,6.9003245 55.249297,5.3971436 51.800096,4.343864 48.675666,3.8146873 45.066755,3.6725526 38.24339,3.4038187 31.747546,4.8092965 25.622614,7.8795973 21.48424,9.9540788 18.210159,12.359768 14.875176,15.776472 10.01056,20.760291 6.526866,26.997088 4.8442104,33.734736 c -0.8779837,3.515601 -1.1653746,5.889149 -1.1716333,9.676471 -0.00449,2.719036 0.044508,3.490512 0.3652805,5.751016 0.8155668,5.747343 2.8959757,11.266829 6.0801394,16.131084 3.042762,4.648243 6.956905,8.562885 11.595795,11.597264 7.106474,4.648474 15.723945,6.935902 24.147025,6.409599 z"
     id="path25" />
</svg>
